<svg width="1080" height="1920" viewBox="0 0 1080 1920" fill="none" xmlns="http://www.w3.org/2000/svg">
  <rect width="1080" height="1920" fill="#070713"/>
  <circle cx="160" cy="130" r="360" fill="#6366F1" fill-opacity="0.32"/>
  <circle cx="940" cy="1710" r="420" fill="#EC4899" fill-opacity="0.24"/>
  <rect x="80" y="170" width="920" height="1580" rx="70" fill="rgba(255,255,255,.08)" stroke="rgba(255,255,255,.14)" stroke-width="4"/>
  <rect x="138" y="230" width="804" height="510" rx="50" fill="rgba(0,0,0,.22)"/>
  <rect x="190" y="300" width="110" height="110" rx="36" fill="url(#g)"/>
  <text x="190" y="505" fill="#A5B4FC" font-family="Arial, sans-serif" font-size="36" font-weight="800" letter-spacing="8">MOVIZZQUIZZ</text>
  <text x="190" y="625" fill="white" font-family="Arial, sans-serif" font-size="92" font-weight="900">Entre para</text>
  <text x="190" y="725" fill="white" font-family="Arial, sans-serif" font-size="92" font-weight="900">jogar.</text>
  <rect x="138" y="800" width="804" height="120" rx="34" fill="rgba(255,255,255,.07)" stroke="rgba(255,255,255,.15)" stroke-width="3"/>
  <text x="210" y="874" fill="white" font-family="Arial, sans-serif" font-size="42" font-weight="800">Conta</text>
  <rect x="138" y="955" width="804" height="120" rx="34" fill="rgba(255,255,255,.07)" stroke="rgba(255,255,255,.15)" stroke-width="3"/>
  <text x="210" y="1029" fill="white" font-family="Arial, sans-serif" font-size="42" font-weight="800">Visitante</text>
  <rect x="138" y="1110" width="804" height="120" rx="34" fill="rgba(255,255,255,.07)" stroke="rgba(255,255,255,.15)" stroke-width="3"/>
  <text x="210" y="1184" fill="white" font-family="Arial, sans-serif" font-size="42" font-weight="800">Admin</text>
  <rect x="138" y="1300" width="804" height="90" rx="28" fill="url(#g)"/>
  <text x="380" y="1358" fill="white" font-family="Arial, sans-serif" font-size="36" font-weight="900">Entrar no app</text>
  <defs>
    <linearGradient id="g" x1="138" y1="1300" x2="942" y2="1390" gradientUnits="userSpaceOnUse">
      <stop stop-color="#6366F1"/>
      <stop offset="1" stop-color="#EC4899"/>
    </linearGradient>
  </defs>
</svg>
